<svg width="18" height="18" viewBox="0 0 18 18" fill="none" xmlns="http://www.w3.org/2000/svg">
<path fill-rule="evenodd" clip-rule="evenodd" d="M16.9422 16.0578L13.0305 12.1469C15.3858 9.3192 15.1004 5.13911 12.3826 2.65779C9.66485 0.176469 5.47612 0.271665 2.87389 2.87389C0.271665 5.47612 0.176469 9.66485 2.65779 12.3826C5.13911 15.1004 9.3192 15.3858 12.1469 13.0305L16.0578 16.9422C16.302 17.1864 16.698 17.1864 16.9422 16.9422C17.1864 16.698 17.1864 16.302 16.9422 16.0578ZM2.125 7.75C2.125 4.6434 4.6434 2.125 7.75 2.125C10.8566 2.125 13.375 4.6434 13.375 7.75C13.375 10.8566 10.8566 13.375 7.75 13.375C4.64483 13.3716 2.12844 10.8552 2.125 7.75Z" fill="#61758A"/>
</svg>
